<?xml version="1.0" standalone="no"?>
<!DOCTYPE svg PUBLIC "-//W3C//DTD SVG 20010904//EN"
 "http://www.w3.org/TR/2001/REC-SVG-20010904/DTD/svg10.dtd">
<svg version="1.0" xmlns="http://www.w3.org/2000/svg"
 width="1000.000000pt" height="1000.000000pt" viewBox="0 0 1000.000000 1000.000000"
 preserveAspectRatio="xMidYMid meet">
<metadata>
Created by potrace 1.14, written by Peter Selinger 2001-2017
</metadata>
<g transform="translate(0.000000,1000.000000) scale(0.100000,-0.100000)"
fill="#000000" stroke="none">
<path d="M4575 9985 c-896 -81 -1722 -381 -2445 -889 -719 -505 -1309 -1210
-1670 -1994 -310 -675 -460 -1358 -460 -2102 0 -1341 516 -2587 1465 -3535
501 -502 1076 -877 1735 -1133 757 -294 1605 -398 2420 -296 1311 164 2497
836 3321 1884 399 508 707 1117 878 1735 177 638 226 1313 145 1965 -164 1312
-836 2497 -1884 3321 -766 602 -1675 957 -2670 1044 -200 18 -638 18 -835 0z
m195 -4986 l0 -4490 -82 6 c-515 40 -988 154 -1448 349 l-145 61 -5 2090 c-3
1150 -8 2077 -12 2060 -3 -16 -102 -568 -218 -1225 -116 -657 -214 -1203 -218
-1213 -4 -11 -100 505 -226 1215 -121 678 -223 1237 -227 1243 -5 5 -9 -802
-9 -1794 l0 -1802 -92 77 c-130 108 -415 397 -529 534 -426 513 -731 1095
-895 1705 -111 413 -156 762 -155 1200 0 259 15 452 50 681 162 1036 686 1986
1481 2686 116 102 254 208 261 200 3 -4 79 -833 168 -1842 90 -1009 165 -1837
166 -1839 8 -7 21 140 190 2049 96 1092 178 2007 181 2034 l6 48 107 50 c484
227 1083 377 1619 406 l32 2 0 -4491z m789 4460 c401 -48 812 -158 1201 -323
l145 -61 5 -2090 c3 -1150 6 -2087 8 -2083 1 4 99 553 217 1220 119 667 219
1223 223 1236 5 16 82 -398 226 -1210 121 -678 223 -1237 227 -1243 5 -5 9
802 9 1794 l0 1802 92 -78 c831 -707 1387 -1714 1537 -2783 61 -435 58 -911
-8 -1336 -162 -1036 -686 -1986 -1481 -2686 -116 -102 -254 -208 -261 -200 -3
4 -79 833 -168 1842 -90 1009 -164 1837 -166 1839 -8 7 -21 -136 -190 -2049
-96 -1092 -178 -2007 -181 -2034 l-6 -48 -107 -50 c-475 -223 -995 -356 -1573
-403 l-78 -7 0 4492 0 4491 83 -6 c45 -4 156 -15 246 -26z"/>
</g>
</svg>
