<?xml version="1.0" standalone="no"?>
<!DOCTYPE svg PUBLIC "-//W3C//DTD SVG 20010904//EN"
 "http://www.w3.org/TR/2001/REC-SVG-20010904/DTD/svg10.dtd">
<svg version="1.0" xmlns="http://www.w3.org/2000/svg"
 width="3544.000000pt" height="3544.000000pt" viewBox="0 0 3544.000000 3544.000000"
 preserveAspectRatio="xMidYMid meet">
<metadata>
Created by potrace 1.14, written by Peter Selinger 2001-2017
</metadata>
<g transform="translate(0.000000,3544.000000) scale(0.100000,-0.100000)"
fill="#000000" stroke="none">
<path d="M17228 35435 c-2 -2 -88 -6 -193 -9 -104 -4 -221 -9 -260 -11 -225
-14 -382 -24 -455 -30 -165 -14 -208 -18 -235 -21 -16 -1 -64 -6 -105 -9 -41
-3 -86 -8 -100 -10 -14 -2 -56 -7 -95 -10 -38 -4 -76 -8 -85 -10 -8 -2 -44 -6
-80 -10 -36 -3 -76 -8 -90 -10 -14 -2 -50 -7 -80 -10 -30 -4 -131 -17 -225
-31 -93 -13 -188 -27 -210 -30 -22 -3 -78 -12 -125 -20 -47 -9 -101 -17 -120
-20 -19 -2 -46 -6 -60 -9 -14 -3 -38 -8 -55 -11 -151 -26 -484 -90 -595 -114
-195 -43 -326 -72 -346 -76 -11 -2 -121 -29 -245 -60 -123 -30 -231 -57 -239
-59 -37 -8 -423 -117 -500 -140 -47 -15 -94 -28 -104 -30 -23 -5 -42 -11 -351
-111 -269 -86 -576 -193 -800 -278 -162 -62 -461 -180 -510 -202 -16 -7 -59
-25 -95 -39 -36 -14 -79 -32 -95 -40 -17 -7 -53 -23 -80 -35 -52 -22 -67 -29
-178 -79 -38 -17 -70 -31 -72 -31 -3 0 -51 -22 -107 -49 -57 -27 -139 -65
-183 -86 -103 -47 -613 -303 -685 -343 -30 -17 -73 -39 -95 -50 -134 -64 -840
-473 -1005 -582 -30 -20 -62 -39 -70 -43 -15 -6 -379 -244 -548 -359 -429
-291 -1046 -758 -1402 -1062 -52 -45 -106 -90 -120 -102 -85 -72 -258 -222
-275 -239 -11 -11 -49 -46 -85 -77 -36 -31 -83 -73 -105 -93 -22 -21 -89 -83
-150 -139 -149 -137 -694 -683 -830 -831 -60 -66 -123 -134 -140 -151 -172
-183 -535 -607 -740 -864 -55 -69 -102 -127 -105 -130 -3 -3 -19 -23 -36 -45
-17 -22 -53 -69 -80 -105 -28 -36 -79 -103 -115 -150 -35 -47 -67 -89 -72 -95
-4 -5 -50 -68 -102 -140 -52 -71 -98 -134 -102 -140 -55 -67 -456 -666 -588
-878 -44 -70 -87 -138 -95 -151 -8 -13 -30 -50 -49 -82 -19 -33 -74 -124 -122
-204 -82 -138 -239 -414 -304 -538 -17 -31 -59 -111 -95 -177 -66 -125 -311
-613 -350 -700 -13 -27 -49 -106 -81 -174 -33 -67 -59 -125 -59 -127 0 -3
-106 -246 -165 -379 -7 -16 -21 -50 -30 -75 -18 -49 -22 -57 -58 -140 -13 -30
-50 -122 -81 -205 -32 -82 -62 -159 -66 -170 -121 -289 -397 -1139 -526 -1615
-41 -152 -168 -659 -183 -730 -11 -52 -43 -201 -70 -330 -27 -129 -52 -251
-55 -270 -3 -19 -10 -57 -15 -85 -19 -90 -57 -310 -67 -385 -3 -25 -8 -48 -10
-51 -1 -3 -6 -28 -9 -55 -4 -27 -8 -56 -10 -64 -2 -8 -7 -39 -10 -69 -4 -30
-8 -62 -10 -71 -2 -9 -6 -41 -10 -71 -3 -30 -13 -99 -21 -154 -8 -55 -17 -120
-20 -145 -2 -25 -6 -63 -9 -85 -17 -148 -35 -308 -40 -365 -2 -30 -7 -80 -10
-110 -17 -182 -22 -248 -40 -520 -23 -354 -29 -568 -29 -1105 0 -531 7 -790
29 -1110 3 -38 7 -106 10 -150 5 -80 11 -165 20 -260 3 -27 7 -79 10 -115 4
-36 8 -83 10 -105 2 -22 7 -67 10 -100 6 -67 53 -463 59 -510 3 -16 8 -52 11
-80 4 -27 8 -57 10 -65 2 -8 7 -37 10 -65 3 -27 8 -61 10 -75 3 -14 7 -47 11
-75 3 -27 8 -59 10 -70 3 -11 7 -36 9 -55 3 -19 8 -44 10 -56 3 -12 7 -39 10
-60 3 -21 8 -50 11 -64 4 -14 8 -38 9 -55 2 -16 6 -41 9 -55 20 -101 27 -139
32 -169 3 -18 8 -43 10 -55 3 -11 14 -68 24 -126 11 -58 22 -112 25 -120 2 -8
6 -26 9 -40 28 -152 195 -856 227 -955 5 -16 21 -73 34 -125 31 -115 37 -137
120 -413 75 -251 184 -584 275 -837 62 -174 218 -585 244 -644 8 -17 40 -94
71 -171 96 -234 207 -486 340 -770 62 -132 267 -544 329 -660 29 -55 77 -145
106 -200 29 -55 62 -113 72 -130 10 -16 21 -37 25 -45 14 -31 168 -300 239
-418 41 -67 74 -127 74 -132 0 -6 5 -10 10 -10 6 0 10 -4 10 -10 0 -5 54 -95
120 -200 66 -105 120 -195 120 -200 0 -5 4 -10 8 -12 11 -4 72 -97 72 -109 0
-5 5 -9 10 -9 6 0 10 -4 10 -9 0 -11 142 -225 153 -229 4 -2 7 -8 7 -13 0 -5
30 -51 68 -104 37 -52 99 -141 139 -197 178 -254 417 -571 632 -839 50 -63 97
-121 104 -129 24 -30 102 -125 123 -150 82 -95 166 -194 204 -240 25 -29 56
-65 70 -79 14 -14 54 -60 90 -101 36 -41 81 -93 102 -115 20 -22 49 -53 64
-70 141 -156 303 -324 539 -560 288 -287 366 -363 565 -545 63 -58 120 -110
126 -116 6 -5 35 -30 64 -55 28 -24 68 -60 89 -79 20 -19 61 -55 90 -80 30
-25 59 -50 65 -55 6 -6 38 -33 71 -60 33 -28 62 -53 65 -56 5 -6 294 -243 385
-316 43 -34 263 -204 311 -240 16 -12 38 -29 49 -38 24 -19 149 -111 189 -140
15 -11 49 -36 75 -55 67 -50 452 -320 457 -320 2 0 27 -18 56 -40 29 -22 57
-40 62 -40 4 0 25 -13 46 -30 21 -16 41 -30 44 -30 4 0 30 -17 59 -37 29 -21
62 -43 72 -50 11 -6 101 -63 200 -125 98 -62 184 -115 190 -118 5 -3 21 -12
35 -21 33 -22 335 -201 380 -226 19 -11 67 -37 105 -58 39 -21 95 -53 125 -70
30 -18 100 -56 155 -85 55 -29 129 -69 165 -88 90 -48 578 -292 670 -335 41
-19 116 -54 165 -77 119 -56 324 -146 515 -226 85 -36 164 -69 175 -74 246
-113 1078 -410 1540 -550 94 -28 191 -57 217 -65 45 -14 242 -69 438 -121 205
-55 635 -158 740 -178 14 -2 68 -14 120 -26 98 -22 171 -37 229 -46 18 -3 43
-8 55 -10 94 -20 124 -26 146 -29 14 -2 36 -6 50 -9 14 -4 39 -8 55 -11 17 -2
39 -6 50 -8 18 -4 54 -10 140 -23 17 -3 37 -7 45 -9 8 -2 35 -7 60 -10 25 -2
54 -7 65 -9 11 -2 56 -9 100 -16 44 -6 91 -13 105 -15 14 -3 50 -7 80 -10 30
-4 62 -8 70 -10 23 -6 68 -13 135 -20 33 -3 71 -7 85 -10 14 -2 52 -7 85 -10
33 -3 74 -8 90 -10 17 -2 55 -7 85 -10 30 -3 69 -7 85 -9 34 -5 130 -14 220
-21 33 -3 78 -7 100 -9 22 -3 81 -7 130 -11 50 -3 117 -8 150 -10 54 -5 106
-8 305 -20 444 -26 1469 -26 1875 0 44 3 116 8 160 10 167 10 252 16 300 20
75 6 196 17 235 20 19 2 71 7 115 11 44 3 87 7 95 9 8 1 49 6 90 10 41 4 84 9
95 11 10 2 49 6 85 10 36 3 76 7 90 9 14 2 95 13 180 25 85 12 166 23 180 25
14 2 45 7 70 10 25 3 59 8 75 11 17 3 41 7 55 9 31 4 148 23 175 29 11 2 40 7
65 11 62 9 274 48 332 60 15 4 41 8 58 10 18 3 39 7 49 9 9 3 32 8 51 11 19 3
64 12 100 20 36 8 139 30 230 50 330 71 892 216 1170 300 47 15 92 28 101 30
117 25 1034 337 1194 405 11 5 58 23 105 41 101 38 553 222 628 255 28 13 77
35 107 49 31 14 83 37 118 51 34 15 103 46 152 69 50 24 122 57 160 75 209 96
708 351 950 486 72 39 155 85 185 102 67 37 160 89 180 102 48 30 302 180 305
180 2 0 23 13 47 29 24 15 142 90 263 166 121 76 222 141 225 144 3 4 43 31
90 61 260 168 645 444 1010 725 177 136 470 370 545 436 17 15 66 57 110 94
90 76 170 144 207 177 26 25 76 69 181 162 37 32 89 79 116 105 27 25 95 89
152 141 138 127 665 654 809 810 63 68 131 140 150 161 19 20 58 63 85 95 28
31 65 73 83 93 18 20 43 47 56 61 21 24 256 298 283 330 28 34 134 162 143
173 36 42 213 265 263 332 34 44 64 82 67 85 7 6 213 282 316 425 158 217 508
734 584 860 13 22 48 77 77 123 30 46 108 174 174 285 65 111 124 209 129 217
13 22 222 395 260 465 111 205 343 664 408 805 17 36 53 115 82 175 29 61 75
162 102 225 75 173 88 201 108 245 10 22 40 92 65 155 25 63 52 129 60 145 45
100 231 595 316 840 23 66 45 129 50 140 4 11 35 108 69 215 34 107 64 202 67
210 3 8 7 20 8 25 2 6 32 109 68 230 36 121 78 265 92 320 47 177 107 410 110
425 2 8 16 64 30 124 15 60 28 116 30 125 2 9 26 120 53 246 44 202 57 265 78
375 2 14 11 59 19 100 18 95 23 122 36 190 8 50 12 70 24 150 2 14 13 79 24
145 19 114 27 163 36 237 2 18 7 51 10 73 16 100 37 262 50 385 8 71 14 126
20 170 3 19 7 60 10 90 3 30 7 75 10 100 2 25 7 77 10 115 3 39 8 88 10 110 7
69 16 188 20 245 1 30 6 107 10 170 3 63 8 138 10 167 26 351 26 1435 0 1878
-12 206 -32 492 -40 565 -2 19 -6 67 -9 105 -4 39 -9 97 -11 130 -5 59 -22
211 -30 270 -2 17 -7 55 -10 85 -3 30 -7 71 -10 90 -3 19 -7 53 -10 75 -2 22
-14 105 -25 185 -11 80 -23 163 -26 185 -4 37 -18 126 -28 185 -3 14 -7 41
-10 60 -3 19 -8 46 -10 60 -5 29 -16 92 -22 135 -3 17 -9 50 -14 75 -9 42 -36
182 -46 240 -2 14 -7 36 -10 50 -3 14 -8 39 -11 55 -39 253 -259 1142 -378
1530 -20 66 -47 156 -60 200 -31 104 -179 551 -243 730 -48 135 -87 240 -139
373 -13 35 -40 104 -59 154 -19 50 -41 105 -48 122 -8 17 -40 94 -71 171 -69
169 -217 507 -291 663 -30 63 -54 116 -54 119 0 6 -300 606 -337 673 -16 30
-58 109 -93 175 -35 66 -66 125 -70 130 -4 6 -43 73 -85 150 -89 159 -236 410
-333 565 -36 58 -71 114 -77 125 -15 28 -60 97 -282 438 -37 56 -69 104 -72
107 -4 3 -40 55 -80 115 -98 144 -133 194 -200 286 -31 42 -96 132 -146 200
-72 99 -269 356 -328 429 -6 9 -77 96 -157 195 -79 99 -156 194 -171 210 -14
17 -82 95 -149 175 -68 80 -136 159 -151 175 -16 17 -36 39 -46 51 -17 20
-125 140 -181 202 -150 164 -304 323 -547 567 -296 296 -460 451 -694 661 -24
21 -56 50 -70 63 -14 13 -71 62 -126 110 -55 47 -102 88 -105 91 -3 3 -48 41
-100 85 -52 44 -97 82 -100 85 -8 10 -356 290 -455 366 -271 210 -525 397
-730 539 -55 38 -102 72 -105 75 -3 3 -13 10 -22 15 -9 6 -77 51 -150 100 -73
50 -137 92 -142 94 -6 2 -15 8 -21 13 -36 30 -456 293 -720 450 -163 98 -202
120 -290 168 -27 15 -112 62 -188 104 -75 42 -139 76 -141 76 -2 0 -33 16 -68
36 -70 40 -611 313 -728 367 -41 19 -115 54 -165 77 -49 23 -160 73 -245 110
-85 37 -181 79 -212 94 -31 14 -59 26 -62 26 -4 0 -25 8 -49 19 -23 10 -64 28
-92 39 -27 11 -102 41 -165 67 -382 156 -1001 373 -1450 509 -319 96 -954 267
-1090 292 -14 3 -33 7 -42 10 -10 3 -30 7 -44 10 -14 3 -54 11 -88 19 -33 8
-72 16 -86 19 -14 2 -77 15 -140 29 -63 14 -128 28 -145 31 -16 3 -102 19
-190 36 -136 26 -317 59 -430 76 -16 3 -68 11 -115 19 -89 15 -217 33 -285 41
-22 2 -51 7 -63 10 -13 2 -40 7 -60 9 -21 3 -73 9 -117 15 -44 5 -107 12 -139
16 -33 3 -67 7 -75 9 -9 1 -50 6 -91 10 -41 4 -83 9 -92 10 -9 2 -49 6 -90 9
-75 6 -166 15 -228 21 -19 2 -71 6 -115 9 -44 3 -116 9 -160 12 -44 3 -107 7
-140 9 -81 4 -282 15 -380 21 -85 5 -1213 13 -1217 9z"/>
</g>
</svg>
