<?xml version="1.0" encoding="UTF-8" standalone="no"?>
<!DOCTYPE svg PUBLIC "-//W3C//DTD SVG 1.1//EN" "http://www.w3.org/Graphics/SVG/1.1/DTD/svg11.dtd">
<svg width="100%" height="100%" viewBox="0 0 800 800" version="1.1" xmlns="http://www.w3.org/2000/svg" xmlns:xlink="http://www.w3.org/1999/xlink" xml:space="preserve" xmlns:serif="http://www.serif.com/" style="fill-rule:evenodd;clip-rule:evenodd;stroke-linejoin:round;stroke-miterlimit:2;">
    <g transform="matrix(1.07334,0,0,1.07334,-599.191,-258.557)">
        <path d="M697.998,903.94C697.296,903.377 696.597,902.812 695.899,902.244C611.925,833.888 558.248,729.712 558.248,613.099C558.248,491.019 617.076,382.57 707.905,314.579L735.265,622.265L765.791,278.972C810.324,256.902 859.887,243.475 912.282,240.89L912.282,985.308C862.516,982.852 815.305,970.616 772.532,950.482L772.532,603.933L735.265,813.483L697.998,603.933L697.998,903.94ZM949.549,240.89C999.315,243.345 1046.53,255.582 1089.3,275.716L1089.3,622.265L1126.57,412.715L1163.83,622.265L1163.83,322.257C1249.01,390.58 1303.58,495.516 1303.58,613.099C1303.58,735.179 1244.76,843.627 1153.93,911.618L1126.57,603.933L1096.04,947.225C1051.51,969.296 1001.94,982.723 949.549,985.308L949.549,240.89Z" style="fill:white;"/>
    </g>
</svg>
